<svg width="13" height="7" viewBox="0 0 13 7" fill="none" xmlns="http://www.w3.org/2000/svg">
<path d="M1 3.15C0.8067 3.15 0.65 3.3067 0.65 3.5C0.65 3.6933 0.8067 3.85 1 3.85L1 3.15ZM12.4975 3.74749C12.6342 3.61081 12.6342 3.3892 12.4975 3.25251L10.2701 1.02513C10.1334 0.888444 9.91181 0.888444 9.77513 1.02513C9.63844 1.16181 9.63844 1.38342 9.77513 1.5201L11.755 3.5L9.77513 5.4799C9.63844 5.61658 9.63844 5.83819 9.77513 5.97487C9.91181 6.11156 10.1334 6.11156 10.2701 5.97487L12.4975 3.74749ZM1 3.85L12.25 3.85L12.25 3.15L1 3.15L1 3.85Z" fill="black"/>
</svg>
